<?xml version="1.0" encoding="iso-8859-1"?>
<!-- Generator: Adobe Illustrator 21.0.2, SVG Export Plug-In . SVG Version: 6.00 Build 0)  -->
<svg version="1.1" id="Layer_1" xmlns="http://www.w3.org/2000/svg" xmlns:xlink="http://www.w3.org/1999/xlink" x="0px" y="0px"
	 viewBox="0 0 100.354 100.352" style="enable-background:new 0 0 100.354 100.352;" xml:space="preserve">
<rect x="42.349" y="70.999" style="fill:none;stroke:#000000;stroke-width:3;stroke-linecap:round;stroke-linejoin:round;stroke-miterlimit:10;" width="18.091" height="17.045"/>
<path style="fill:none;stroke:#000000;stroke-width:3;stroke-linecap:round;stroke-linejoin:round;stroke-miterlimit:10;" d="
	M57.55,88.371c0,3.399-2.753,6.153-6.153,6.153s-6.153-2.754-6.153-6.153"/>
<path style="fill:none;stroke:#000000;stroke-width:3;stroke-linecap:round;stroke-linejoin:round;stroke-miterlimit:10;" d="
	M26.341,41.501c0.724,3.37,2.476,5.339,4.994,7.932v-0.008c11.696,9.924,10.96,21.574,10.96,21.574"/>
<path style="fill:none;stroke:#000000;stroke-width:3;stroke-linecap:round;stroke-linejoin:round;stroke-miterlimit:10;" d="
	M47.027,11.251c-9.428,1.634-18.289,10.794-20,20"/>
<path style="fill:none;stroke:#000000;stroke-width:3;stroke-linecap:round;stroke-linejoin:round;stroke-miterlimit:10;" d="
	M52.391,9.172"/>
<path style="fill:none;stroke:#000000;stroke-width:3;stroke-linecap:round;stroke-linejoin:round;stroke-miterlimit:10;" d="
	M75.943,31c-1.674-9.217-9.675-18.137-19.094-19.812"/>
<path style="fill:none;stroke:#000000;stroke-width:3;stroke-linecap:round;stroke-linejoin:round;stroke-miterlimit:10;" d="
	M60.463,70.999c0,0-0.033-12.317,11.004-22.244l0.025,0.025c2.031-2.412,3.462-4.247,4.098-7.279"/>
<line style="fill:none;stroke:#000000;stroke-width:3;stroke-linecap:round;stroke-linejoin:round;stroke-miterlimit:10;" x1="51.396" y1="57.084" x2="51.396" y2="70.999"/>
<line style="fill:none;stroke:#000000;stroke-width:3;stroke-linecap:round;stroke-linejoin:round;stroke-miterlimit:10;" x1="46.027" y1="11.172" x2="20.824" y2="11.172"/>
<line style="fill:none;stroke:#000000;stroke-width:3;stroke-linecap:round;stroke-linejoin:round;stroke-miterlimit:10;" x1="75.943" y1="31" x2="75.882" y2="5.474"/>
<line style="fill:none;stroke:#000000;stroke-width:3;stroke-linecap:round;stroke-linejoin:round;stroke-miterlimit:10;" x1="78.277" y1="5.474" x2="73.277" y2="5.474"/>
<line style="fill:none;stroke:#000000;stroke-width:3;stroke-linecap:round;stroke-linejoin:round;stroke-miterlimit:10;" x1="19.725" y1="8.501" x2="19.725" y2="13.501"/>
<line style="fill:none;stroke:#000000;stroke-width:3;stroke-linecap:round;stroke-linejoin:round;stroke-miterlimit:10;" x1="26.474" y1="67.566" x2="26.474" y2="41.564"/>
<line style="fill:none;stroke:#000000;stroke-width:3;stroke-linecap:round;stroke-linejoin:round;stroke-miterlimit:10;" x1="24.115" y1="67.566" x2="28.865" y2="67.566"/>
<rect x="21.815" y="31.613" style="fill:none;stroke:#000000;stroke-width:3;stroke-linecap:round;stroke-linejoin:round;stroke-miterlimit:10;" width="9.212" height="9.138"/>
<rect x="71.065" y="31.613" style="fill:none;stroke:#000000;stroke-width:3;stroke-linecap:round;stroke-linejoin:round;stroke-miterlimit:10;" width="9.212" height="9.138"/>
<rect x="47.565" y="6.113" style="fill:none;stroke:#000000;stroke-width:3;stroke-linecap:round;stroke-linejoin:round;stroke-miterlimit:10;" width="9.212" height="9.138"/>
</svg>
